#!OML:ASF E:\inclinewalkrobotboard\Project 1\Capture day 1\Session 1\subject1.ASF
:FULLY-SPECIFIED
:DEGREES
97
root 8.79505 16.6286 22.9696 -166.523 4.34182 -178.407
lowerback -8.02327 1.83063 -5.65037
upperback 0.908893 2.93337 1.40408
thorax 5.10119 1.27237 5.0053
lowerneck -6.42848 0.452357 -4.37736
upperneck 29.3161 -3.85215 7.50448
head 10.6243 -2.49036 2.85249
rclavicle 4.47266e-016 -1.52816e-014
rhumerus -43.5984 -23.0945 -73.3829
rradius 35.4513
rwrist 13.2477
rhand -15.0237 -34.2447
rfingers 7.12502
rthumb 11.1419 -63.9289
lclavicle 4.47266e-016 -1.52816e-014
lhumerus -30.5413 3.26429 86.3715
lradius 24.9024
lwrist -17.5258
lhand -31.9688 -24.0312
lfingers 7.12502
lthumb -5.21858 5.88452
rfemur -12.3458 3.87919 20.8345
rtibia 12.2679
rfoot -14.3408 -3.29564
rtoes -23.2053
lfemur -15.8126 -10.198 -18.5876
ltibia 16.0541
lfoot -18.0681 2.99662
ltoes -56.1942
98
root 8.77626 16.6223 22.9384 -166.633 4.30238 -178.253
lowerback -7.9083 1.8802 -5.53229
upperback 0.956715 2.97862 1.47999
thorax 5.08233 1.29677 5.01923
lowerneck -7.29407 0.48428 -3.79843
upperneck 29.85 -3.71369 6.84683
head 10.9735 -2.40554 2.52899
rclavicle 1.79279e-014 -2.06239e-015
rhumerus -43.6078 -22.961 -73.3676
rradius 35.5567
rwrist 13.2762
rhand -15.8686 -34.2086
rfingers 7.12502
rthumb 10.3269 -63.935
lclavicle 1.79279e-014 -2.06239e-015
lhumerus -30.4784 2.97535 86.557
lradius 24.8501
lwrist -17.5938
lhand -31.9926 -24.0737
lfingers 7.12502
lthumb -5.24154 5.84149
rfemur -12.1517 3.98394 20.9441
rtibia 12.4139
rfoot -14.5586 -3.43644
rtoes -24.039
lfemur -15.6744 -10.3067 -18.543
ltibia 16.2869
lfoot -18.4899 2.91228
ltoes -56.2263
99
root 8.75642 16.6151 22.9004 -166.657 4.24844 -178.154
lowerback -7.95423 1.88563 -5.49127
upperback 0.967241 2.98232 1.54187
thorax 5.11769 1.29767 5.06453
lowerneck -7.20287 0.401464 -3.8029
upperneck 29.7509 -3.82261 6.84766
head 10.9249 -2.45561 2.51706
rclavicle -3.55079e-014 2.68359e-015
rhumerus -43.6553 -22.7456 -73.3664
rradius 35.6191
rwrist 12.9379
rhand -15.9505 -34.0579
rfingers 7.12502
rthumb 10.2479 -63.7883
lclavicle -3.55079e-014 2.68359e-015
lhumerus -30.5372 2.59789 86.7414
lradius 24.8758
lwrist -17.7025
lhand -32.0451 -24.1794
lfingers 7.12502
lthumb -5.2923 5.73451
rfemur -12.0112 3.92339 20.9874
rtibia 12.5512
rfoot -14.8069 -3.42912
rtoes -24.5377
lfemur -15.5936 -10.4851 -18.575
ltibia 16.5067
lfoot -18.9613 2.81011
ltoes -56.1572
100
root 8.7353 16.6099 22.8602 -166.55 4.27611 -178.038
lowerback -8.10921 1.90776 -5.44581
upperback 0.907519 3.01399 1.59701
thorax 5.13782 1.31537 5.10669
lowerneck -6.34949 0.270892 -4.28287
upperneck 29.11 -4.05165 7.39559
head 10.5434 -2.57381 2.7733
rclavicle 3.21534e-014 9.24349e-015
rhumerus -43.7227 -22.7011 -73.2579
rradius 35.5749
rwrist 12.7373
rhand -15.1437 -33.8061
rfingers 7.12502
rthumb 11.0261 -63.4966
lclavicle 3.21534e-014 9.24349e-015
lhumerus -30.748 2.02292 86.9804
lradius 25.0134
lwrist -17.8589
lhand -31.8369 -23.7825
lfingers 7.12502
lthumb -5.09121 6.13637
rfemur -12.0968 3.90172 21.0321
rtibia 12.8416
rfoot -15.097 -3.32989
rtoes -24.7162
lfemur -15.6256 -10.5117 -18.572
ltibia 16.7129
lfoot -19.3968 2.70475
ltoes -56.1243
101
root 8.71332 16.6067 22.8173 -166.426 4.41842 -177.88
lowerback -8.25662 1.95589 -5.37188
upperback 0.861938 3.07698 1.66105
thorax 5.16546 1.34876 5.14591
lowerneck -6.98679 0.383165 -3.81215
upperneck 29.6269 -3.87179 6.92569
head 10.8391 -2.47807 2.54103
rclavicle 3.37437e-014 2.28602e-014
rhumerus -43.7256 -22.9358 -72.9946
rradius 35.4491
rwrist 12.9636
rhand -14.5692 -33.4801
rfingers 7.12502
rthumb 11.5802 -63.1401
lclavicle 3.37437e-014 2.28602e-014
lhumerus -30.9525 1.53381 87.2215
lradius 25.2229
lwrist -18.1647
lhand -31.1725 -22.8478
lfingers 7.12502
lthumb -4.44969 7.08541
rfemur -12.326 4.16557 21.1145
rtibia 13.3729
rfoot -15.438 -3.35718
rtoes -24.8266
lfemur -15.6085 -10.3069 -18.5175
ltibia 16.8394
lfoot -19.6471 2.61841
ltoes -56.2315
102
root 8.69052 16.6039 22.7701 -166.382 4.51682 -177.825
lowerback -8.37334 1.96169 -5.36265
upperback 0.88581 3.09001 1.674
thorax 5.25484 1.35138 5.16309
lowerneck -6.62969 0.321467 -4.11427
upperneck 29.2394 -3.96381 7.27812
head 10.6372 -2.51733 2.71092
rclavicle 1.59897e-014 -2.5345e-015
rhumerus -43.706 -23.1806 -72.7791
rradius 35.4252
rwrist 13.1702
rhand -14.3827 -33.3372
rfingers 7.12502
rthumb 11.7601 -62.987
lclavicle 1.59897e-014 -2.5345e-015
lhumerus -31.1393 0.881615 87.4637
lradius 25.58
lwrist -18.3741
lhand -30.7131 -22.5887
lfingers 7.12502
lthumb -4.00611 7.35339
rfemur -12.5053 4.60219 21.084
rtibia 14.0076
rfoot -15.824 -3.55077
rtoes -24.5123
lfemur -15.4433 -10.2053 -18.6023
ltibia 16.8528
lfoot -19.7758 2.28283
ltoes -55.4448
103
root 8.66891 16.5992 22.7255 -166.295 4.50399 -177.859
lowerback -8.40421 1.89555 -5.48619
upperback 0.84913 3.01503 1.69165
thorax 5.23631 1.31223 5.24354
lowerneck -6.51153 0.307912 -4.25147
upperneck 29.0322 -3.99598 7.51289
head 10.544 -2.52057 2.81551
rclavicle -2.08103e-014 2.38542e-015
rhumerus -43.7714 -23.3018 -72.5776
rradius 35.4269
rwrist 13.1415
rhand -14.8544 -32.9635
rfingers 7.12502
rthumb 11.3052 -62.6388
lclavicle -2.08103e-014 2.38542e-015
lhumerus -31.412 -0.0459284 87.8304
lradius 26.0498
lwrist -18.3367
lhand -30.7957 -22.9503
lfingers 7.12502
lthumb -4.08581 6.99026
rfemur -12.9005 5.12346 20.9723
rtibia 14.9625
rfoot -16.3548 -3.98203
rtoes -24.5426
lfemur -15.3596 -10.138 -18.7514
ltibia 16.8516
lfoot -19.8546 1.59576
ltoes -53.9013
